<svg xmlns="http://www.w3.org/2000/svg" version="1.1" xmlns:xlink="http://www.w3.org/1999/xlink" viewBox="0 0 6.8984417284901 6.739075810266096"><g transform="matrix(0.8556974595922853,0,0,0.8556974595922853,0.9839642128486421,4.935488222291725)"><rect width="8.03490152338645" height="8.03490152338645" x="-1.1364597948963495" y="-5.847478769378099" fill="#ffffff"></rect><g transform="matrix(1,0,0,1,0,0)" clip-path="url(#SvgjsClipPath53498)"><g clip-path="url(#SvgjsClipPath53493659bd5dd-10a7-4623-9293-509286608604)"><path d=" M 1.7285091718651395 -2.250502076075821 C 1.6851523948658873 -2.278242194061124 1.6770700888849845 -2.3378320771406655 1.6792961477356565 -2.389271160120821 C 1.681761936001017 -2.4456075725724564 1.6917963243586638 -2.5029713968013243 1.7201186423510664 -2.551739209160673 C 1.7484067132842274 -2.6005070215200217 1.7973115138805407 -2.6397199043510993 1.8533739498582464 -2.6455419044220885 C 1.8699495265309467 -2.6472542573841444 1.8866963384998519 -2.6460898573699465 1.9033404092910344 -2.6449597044149895 C 1.934916197911343 -2.6427678926235583 1.9685468100861183 -2.639788398469581 1.9935471633321327 -2.62040456293911 C 2.029849046127715 -2.592219233183672 2.035362822665535 -2.53934177371539 2.0290956108244105 -2.493827431983947 C 2.02323936369418 -2.451155596169517 2.0096775282346986 -2.409579666250803 1.9893005279862341 -2.371668171670888 C 1.948888998081718 -2.2965301236958804 1.8734084795142993 -2.2336525229291926 1.7880990549446805 -2.2347826758841496 C 1.7672768429260823 -2.235056652358078 1.746043666196591 -2.2393032877039762 1.7285091718651395 -2.250536323135062 L 1.7285091718651395 -2.250536323135062 Z" fill="#18005c" transform="matrix(1,0,0,1,0,0)" fill-rule="nonzero"></path></g><g clip-path="url(#SvgjsClipPath53493659bd5dd-10a7-4623-9293-509286608604)"><path d=" M 2.5743772880614517 -2.580609480100933 C 2.6118435708712324 -2.5756094094517303 2.6515701595909262 -2.5633832093026525 2.673522524564481 -2.532595103044889 C 2.6609538538229924 -2.5213963146730447 2.6430426418398887 -2.5192387499408544 2.626364323989465 -2.5169099499124585 C 2.473108733885473 -2.4955740320052433 2.328620390947207 -2.4163948310397845 2.2281737661930157 -2.298653441368829 C 2.3834841798514743 -2.417148266343089 2.5757471704310966 -2.4838272906855408 2.7705786904538026 -2.498039820270604 C 2.885066609496852 -2.5063961027254362 3.006780658039776 -2.495094573175868 3.101542270959943 -2.430264890032436 C 3.132501612513911 -2.409100207421427 3.160447212854662 -2.381668312969293 3.1750707071506183 -2.3471472772542494 C 3.1896942014465743 -2.312626241539205 3.1890777543802344 -2.2701941351394623 3.1670568952881974 -2.2398512406518343 C 3.140001718487716 -2.2025904401975005 3.088939353159213 -2.1918368635957903 3.0429113055391537 -2.1932067459654356 C 2.9770542106184883 -2.195158828342179 2.913354680430013 -2.2157413109460893 2.848285267871894 -2.226118169896147 C 2.6874953247348565 -2.2518377113862247 2.5219792874225453 -2.2143714285764444 2.3723196385388703 -2.150192439558594 C 2.2875924139763506 -2.113856309703771 2.2059131776862904 -2.068787179742462 2.1166995883631845 -2.045499179458504 C 2.0274859990400786 -2.022211179174546 1.9264229272195472 -2.0235125674257075 1.850154726289582 -2.075294120998275 C 1.8355997261121082 -2.085157274059716 1.8214899377047686 -2.097794438919687 1.8169350788257 -2.11474673324404 C 1.8123802199466317 -2.131733274627633 1.821661173000974 -2.1532061807718126 1.8390244320362197 -2.1559116984518605 C 1.8990595268858954 -2.165226898565444 1.9535465981385098 -2.1972478989558866 1.999814375173257 -2.2365977700239283 C 2.0460821522080046 -2.27594764109197 2.0852950350390818 -2.322763371074575 2.1262887649506963 -2.367558524561954 C 2.198789789364138 -2.446737725527413 2.2804347785949575 -2.5221155029171083 2.3811553798230785 -2.5592050680752365 C 2.442560357042398 -2.581808127174373 2.5094791107995382 -2.589239739029695 2.57430879394297 -2.5806094801009336 L 2.57430879394297 -2.5806094801009336 Z" fill="#18005c" transform="matrix(1,0,0,1,0,0)" fill-rule="nonzero"></path></g><g clip-path="url(#SvgjsClipPath53493659bd5dd-10a7-4623-9293-509286608604)"><path d=" M 1.114938858501314 -2.3088248179634405 C 1.0984317759470965 -2.342455430138216 1.1004523524423222 -2.3819422894432223 1.1049387172029084 -2.4191345957790737 C 1.1066510701649643 -2.43344986654186 1.10897987019336 -2.448381584370986 1.1175416350036391 -2.459957090394483 C 1.126137646873159 -2.4715325964179806 1.143021447079029 -2.4782792670884803 1.1554188825243126 -2.4709503964108817 C 1.2622012132381106 -2.408107042703435 1.3856618618023322 -2.373859983462319 1.5095677221366879 -2.372695583448121 C 1.5538149226762092 -2.3722846187372277 1.5958703114242994 -2.3398869006951326 1.6075143115662784 -2.2971808178214608 C 1.6191925587674987 -2.25447473494779 1.5994662526446162 -2.205227463759066 1.5615890051239425 -2.182350428186001 C 1.540355828394451 -2.1695420280298237 1.5152184869114722 -2.164850180913791 1.490492110139387 -2.1628638514778062 C 1.3938469089609589 -2.155089769030073 1.2976811666119066 -2.1853641693992185 1.2107621302579552 -2.2283099816875778 C 1.1726451533225937 -2.2471458642701907 1.1336719999062042 -2.270639346909596 1.1149388585013138 -2.308790570904199 Z" fill="#18005c" transform="matrix(1,0,0,1,0,0)" fill-rule="nonzero"></path></g><g clip-path="url(#SvgjsClipPath53493659bd5dd-10a7-4623-9293-509286608604)"><path d=" M 1.0908974229140513 -2.648555645635307 C 1.0990482230134364 -2.6929398344117925 1.1148018702643498 -2.7359198937593923 1.1372336940672803 -2.7750642824719876 C 1.1526791177850233 -2.801982471035504 1.1748712121732663 -2.829345871369156 1.2056935654902703 -2.8329075655302316 C 1.2200088362530563 -2.8345514243738053 1.2343241070158426 -2.8307500007980413 1.2482626601269768 -2.8269828242815187 C 1.3211404021920705 -2.807188024040154 1.3939838971979233 -2.787393223798789 1.4668273922037762 -2.7675984235574242 C 1.5139855927787922 -2.754790023401247 1.561897228657113 -2.7416391526526582 1.6033704173981038 -2.7158168699848573 C 1.6448093590798536 -2.689960340257815 1.6796386183280678 -2.649069351523923 1.6862825478208447 -2.600678256816227 C 1.6921045478918344 -2.5582119033572437 1.6758714418115455 -2.5157455498982606 1.6551519709706706 -2.478210772969998 C 1.6391928413643106 -2.4493062549704963 1.6191583117082582 -2.4208811958003706 1.5898085819386218 -2.405778242675039 C 1.5577190874296964 -2.389271160120821 1.519567863435094 -2.3910862542606 1.4837454394688872 -2.395332889606499 C 1.3837440264848295 -2.407148125044684 1.2856262017590339 -2.4346485136152993 1.1940495653482908 -2.476498420007943 C 1.1538777648584624 -2.4948548437611806 1.1121305996435424 -2.5189647734669256 1.0951440582599492 -2.5597530210230945 C 1.0836027992956931 -2.587527386067639 1.0854863875539547 -2.6190004335102244 1.090931669973292 -2.648589892694548 L 1.090931669973292 -2.648589892694548 Z" fill="#18005c" transform="matrix(1,0,0,1,0,0)" fill-rule="nonzero"></path></g><g clip-path="url(#SvgjsClipPath53493659bd5dd-10a7-4623-9293-509286608604)"><path d=" M 1.623678923528085 -2.0412182970533643 C 1.624809076483042 -2.036252473463403 1.6196377705376335 -2.0310126733995117 1.6146719469476718 -2.0320400851767455 C 1.6223090411584407 -2.012724743764756 1.6021032762061824 -1.9945738023669648 1.5844660406970075 -1.9836147434098077 C 1.4036073208446764 -1.8709419185065372 1.2201458244900207 -1.762447234830684 1.034252786929246 -1.6582676806192103 C 0.9864438922286489 -1.631452233233417 0.9379500563432291 -1.6047395270253464 0.8852780792303934 -1.5895680797815328 C 0.8559283494607575 -1.5811090561489771 0.8236333725963856 -1.5765199502106677 0.7954480428409475 -1.5882666915303703 C 0.7649339130571134 -1.6009723505088242 0.744933630460302 -1.6302535861599776 0.7289745008539421 -1.6591923512187203 C 0.7062002064586003 -1.700494304663506 0.6876383003499157 -1.7495360934967832 0.70342619466007 -1.7939545293325097 C 0.7135290771361991 -1.8223453414433943 0.7366458421239521 -1.8446401770093601 0.7628448424434056 -1.8595718948384872 C 0.7890095957036177 -1.8745036126676133 0.8183250784140125 -1.8829283892409276 0.8473665846504786 -1.8909422011033494 C 1.1016852465750024 -1.9611486725476364 1.3615176850373456 -2.011457602572835 1.623678923528085 -2.0412182970533643 L 1.623678923528085 -2.0412182970533643 Z" fill="#a4cb6a" transform="matrix(1,0,0,1,0,0)" fill-rule="nonzero"></path></g><g clip-path="url(#SvgjsClipPath53493659bd5dd-10a7-4623-9293-509286608604)"><path d=" M 1.6602890298568378 -1.5643622441800722 C 1.6775495477143596 -1.6275823155391715 1.708988348097704 -1.685836563308309 1.7401189249478781 -1.7434743640111061 C 1.7699481135468893 -1.7986463764485432 1.7997430550866595 -1.8537841418267393 1.8295722436856714 -1.908956154264176 C 1.83412710256474 -1.9173809308374907 1.838990184976978 -1.9261481780032161 1.8470724909578815 -1.9313194839486245 C 1.8551205498795438 -1.9364907898940324 1.867380997087863 -1.9364565428347915 1.8729632677441648 -1.9286824603870585 C 1.8807373501918978 -1.9103945307523031 1.878442797222743 -1.889606565792945 1.875977008957383 -1.869914506729304 C 1.864778220585538 -1.779605011510483 1.8535794322136936 -1.6892612692324196 1.842380643841849 -1.5989517740135986 C 1.8386134673253263 -1.5684718912890054 1.8347435496310802 -1.5376837850312426 1.8239557259701287 -1.5089505023279473 C 1.8131679023091771 -1.4802172196246506 1.7945717491412514 -1.4532990310611344 1.7676878076369757 -1.438470054409732 C 1.7408038661327003 -1.4236753248175695 1.7048787009887698 -1.4232643601066766 1.6809400065792306 -1.4425112074001838 C 1.6468641826343202 -1.4698746077338352 1.6487820179518229 -1.5222383613135002 1.6602890298568378 -1.5643964912393131 L 1.6602890298568378 -1.5643964912393131 Z" fill="#a4cb6a" transform="matrix(1,0,0,1,0,0)" fill-rule="nonzero"></path></g><g clip-path="url(#SvgjsClipPath53493659bd5dd-10a7-4623-9293-509286608604)"><path d=" M 3.527061982030803 -0.43184624213562284 C 3.4361702868048827 -0.5224639608876149 3.403019133459483 -0.6542123977881866 3.3711693683652455 -0.7785634698926764 C 3.322435803065138 -0.9689771192732786 3.2609965787865764 -1.169630639366975 3.111234188725178 -1.296961205625443 C 3.198975154500916 -1.1404178978343031 3.257503378743983 -0.9675387427851518 3.282948943760132 -0.789899246501486 C 3.1769200483496385 -0.8234613645577795 3.058390976316138 -0.815858517406252 2.9575333868510523 -0.7689742933051655 C 2.821367079308377 -0.7057199748868253 2.6906803012442806 -0.5708550555953122 2.548246781860481 -0.6184584679404628 C 2.4482453688764236 -0.6518493507005498 2.398758368273012 -0.762604340286317 2.369579873799582 -0.8639071415215374 C 2.2737908491021814 -1.1966173220489753 2.2723867196732956 -1.548437361632955 2.2801265550617877 -1.8945723893829087 C 2.281359449194468 -1.9501896135904806 2.284030719815275 -2.0095055201960923 2.3164626849166114 -2.054711638394365 C 2.348894650017948 -2.0998835095333965 2.4227655568010342 -2.119233098004626 2.4600263572553676 -2.0779311445598414 C 2.4872870164112957 -2.0477252383091775 2.483793816368702 -2.000704025971126 2.5028351813067617 -1.9647446137679543 C 2.5218765462448216 -1.9287852015647835 2.5931446765255837 -1.9239221191525444 2.5898912058976773 -1.964470637294026 C 2.5854390881963325 -2.0201221085608387 2.6140011356034227 -2.0791640386925216 2.6643100656286216 -2.1033767095759903 C 2.71461899565382 -2.127589380459459 2.7836268200246677 -2.109130215528498 2.8091066321000575 -2.059437732569639 C 2.83619605595978 -2.0065602731013565 2.8220520204931994 -1.9230659426715175 2.877977468233941 -1.9029629188969825 C 2.9071217156481306 -1.938477119330019 2.9053408685675928 -1.9902244258433446 2.9264713041193606 -2.0310469204587545 C 2.9545881397563165 -2.08526001523744 3.026643952399624 -2.1117672390900633 3.0831858472067055 -2.0886504741023106 C 3.139727742013787 -2.065567956173799 3.172639165944499 -1.9962176612105398 3.1547622010206373 -1.9378264252044382 C 3.140994883205709 -1.892791542302371 3.208084872259054 -1.8584759889427733 3.2494553198223217 -1.8810105539234279 C 3.2908257673855896 -1.9035451189040815 3.3073670969990485 -1.9535115783368697 3.31969603832585 -1.99895742594983 C 3.376100944895967 -2.20711105201733 3.4192179924805313 -2.418860619305147 3.448670463427891 -2.632528021910467 C 3.4583966282523675 -2.703213952184129 3.4642871224418395 -2.7829411060974456 3.4190810042435666 -2.838147365594124 C 3.3738748860452943 -2.8933536250908025 3.2597636846538975 -2.8822918249559217 3.2546608728269715 -2.8111264358528842 C 3.248222425689641 -2.7211251641672325 3.1436661538265156 -2.6529050221589303 3.058699199849308 -2.6832821637057997 C 2.973732245872101 -2.713659305252669 2.9361289748253565 -2.8327020831747864 2.9882187519310928 -2.9063675076024262 C 3.010513587497059 -2.9378748021042522 2.945615410235145 -2.967190284814647 2.9184232451976992 -2.9397583903625137 C 2.891265327219495 -2.9123264959103805 2.8922242448782463 -2.8686272483187167 2.8791076211888984 -2.8323253655231344 C 2.8572922444523083 -2.7718793059625657 2.7890378553847652 -2.7321184701836305 2.7257150428479426 -2.742906293844582 C 2.6623579832518787 -2.7537283645647737 2.611158629686411 -2.813866200592173 2.6106106767385535 -2.8781136837285057 C 2.6100627237906955 -2.9423954139240793 2.6533167596122245 -3.0093826617997017 2.6248917004420984 -3.0670547095617398 C 2.534342475808589 -3.044588638699568 2.575233464542481 -2.8778739543138174 2.491567898816436 -2.8366062479282736 C 2.440848004080344 -2.8115716476230186 2.378347120965308 -2.8578051775985243 2.3648880266835497 -2.9127032135620325 C 2.3513946853425503 -2.9676354965847813 2.371394967939361 -3.024622603161998 2.3910870270030027 -3.077602803808004 C 2.478348533949365 -3.3122636537281265 2.567253899739301 -3.549493033091334 2.7090709720567605 -3.7557630709005725 C 2.8508880443742197 -3.9620673557690527 3.0532881644892123 -4.137549287320528 3.296750508634302 -4.1958377821489075 C 3.4912395580645974 -4.242379535657583 3.6960369723264677 -4.211488688222097 3.889498609979529 -4.1609400287822105 C 4.205256496182614 -4.078473110129604 4.534473476667458 -3.9176831669925667 4.661393078215031 -3.6170282339148137 C 4.733928349687716 -3.445210737702138 4.729304996690163 -3.250139488264743 4.69721550218124 -3.0664382624954 C 4.665091760613072 -2.8827370367260565 4.6069745010809005 -2.7043098580798444 4.57536446540135 -2.520540138192019 C 4.516493770565873 -2.1782065340178285 4.556254606344809 -1.8092287177540496 4.741394208602278 -1.5153204553467963 C 4.926499563800508 -1.221377945880302 5.271333203299299 -1.0184983669359342 5.616749042805191 -1.055382449738615 C 5.579180018817687 -0.8693866710001177 5.541131536000808 -0.6817812804772863 5.465719511551871 -0.5076349842362138 C 5.429691605230219 -0.4244831243987859 5.382225181122032 -0.34150249985756265 5.305648756658898 -0.2930771580906244 C 5.161400143135319 -0.20180874521305192 4.962972681892295 -0.26656993423800124 4.839649021565038 -0.38455105332364425 C 4.716291114178541 -0.5025321724092873 4.6441325603575105 -0.66256868024302 4.550877818043952 -0.8055159055154366 C 4.45406138156932 -0.9539084132071896 4.332450074204118 -1.0861020618778965 4.1926193313226445 -1.1949392161461612 C 4.392861886705447 -0.9880869783298234 4.54895998272645 -0.7386656458767793 4.647488772163139 -0.4681138778719669 C 4.536939264932819 -0.5918827499693586 4.340429639007299 -0.6287325857127986 4.192585084263404 -0.5533548083231032 C 4.092583671279345 -0.5023951841723235 4.018473035081572 -0.4089349595033198 3.9164510456022894 -0.36218772363919616 C 3.788914996988375 -0.3037279935146131 3.626446947948523 -0.3327694997510795 3.5270962290900467 -0.4318462421356255 L 3.5270962290900467 -0.4318462421356255 Z M 3.299627261610555 -3.211440311322281 C 3.3176069677121403 -3.2115088054407632 3.3347647443919395 -3.218974664355327 3.3503129092874055 -3.22798164093574 C 3.3912038980212977 -3.2516463588713505 3.4245947807813852 -3.2864756181195656 3.4535677928993693 -3.3237706656331403 C 3.539664899831534 -3.434628396396631 3.5908985004562424 -3.5721303392497097 3.5982958652523234 -3.712303552723596 C 3.599905477036656 -3.7429204236851534 3.5993917711480385 -3.774290729950015 3.5892546416126687 -3.8032294950087575 C 3.5791175120772984 -3.8321682600675 3.557918582407048 -3.8585727427423997 3.5288770761705814 -3.868435895803841 C 3.5040137111615315 -3.8768949194363964 3.476136604939263 -3.8723400605573284 3.4523691458259296 -3.8612097663039657 C 3.4285674396533543 -3.850079472050603 3.4082246864641315 -3.832853201252322 3.3888066038744196 -3.815181718683906 C 3.3674706859672043 -3.7957636360941938 3.34675121512633 -3.775352388786489 3.3303468737498356 -3.751619176732396 C 3.3174014853566938 -3.732920282386747 3.307298602880565 -3.71244054096056 3.297572438056088 -3.6918923054158905 C 3.2447977197655287 -3.5804523746453008 3.2005847662852496 -3.460039714353538 3.2087013193253937 -3.3369900305002105 C 3.210584907583655 -3.308496477211602 3.2155507311736162 -3.2794207239158952 3.230242719588055 -3.2549340765584973 C 3.244968955061734 -3.230481676260341 3.271065214203465 -3.2113375701445577 3.299593014551314 -3.211440311322281 L 3.299593014551314 -3.211440311322281 Z M 2.6810226305382856 -3.3152773949413437 C 2.702495536682465 -3.3111677478324095 2.723351995760304 -3.3239761479885868 2.740475525380862 -3.337503736388827 C 2.821195844012171 -3.401340254814267 2.875306197613134 -3.4932593618174206 2.914519080444211 -3.58839769238924 C 2.937704339550446 -3.644665610722392 2.956608716251542 -3.704289740861175 2.9542456691639054 -3.765112518073396 C 2.953423739742118 -3.7860717183289587 2.9466085749531366 -3.811106318634214 2.9264028100008783 -3.816722836349757 C 2.917498574598188 -3.8191886246151174 2.907977892129158 -3.817065306942168 2.8992106449634325 -3.8141543069066732 C 2.8350316559455817 -3.7929211301771817 2.791846114242535 -3.7341531765194276 2.75390037260338 -3.6781934817194446 C 2.6963653130783056 -3.5932950218607194 2.638967241790196 -3.501238926620601 2.6359192535177365 -3.3987374783119417 C 2.63540554762912 -3.38147696045442 2.6365699476433178 -3.363771230826763 2.6435221006692644 -3.3479833365166085 C 2.6504742536952106 -3.332195442206454 2.6640703362139333 -3.318530865569249 2.681022630538286 -3.3152773949413437 L 2.681022630538286 -3.3152773949413437 Z M 3.0074998462838396 -3.258290288364127 C 3.001712093272091 -3.293941477034128 2.98510226954015 -3.3328118892727945 2.950820963239794 -3.3442846541185682 C 2.9342453865670937 -3.3419558540901724 2.917704056953635 -3.3395928070025347 2.9011284802809354 -3.3372640069741397 C 2.8949297625582937 -3.3363735834338706 2.8897242095536435 -3.332298183384178 2.8848953742006462 -3.3283255245122083 C 2.8559223620826626 -3.3043525830434275 2.828798691163699 -3.2781193356647336 2.8038668320361673 -3.249934005909295 C 2.7949283495742363 -3.2398311234331656 2.7860926082900277 -3.2291460409499377 2.781880220003371 -3.2163718878530023 C 2.777667831716714 -3.2035634876968246 2.7790377140863587 -3.1880838169198404 2.788626890673871 -3.178597381510052 C 2.7958187731145054 -3.1714739931878997 2.806195632064563 -3.1688369696263337 2.8160245380667637 -3.166508169597938 C 2.8598950209546325 -3.1560970635886387 2.90373125678326 -3.1456517105200987 2.947601739671129 -3.1352406045107992 C 2.9669855752016003 -3.1306172515132484 2.9859584460211783 -3.1456859575793397 2.995855846141861 -3.162946475436862 C 3.0120889522221495 -3.1913030404885054 3.0127053992884902 -3.226063805618238 3.007465599224599 -3.2583245354233688 L 3.007465599224599 -3.2583245354233688 Z M 3.637611489261124 -4.202481711641681 C 3.6363101010099617 -4.207447535231643 3.629083971510086 -4.2096050999638335 3.6252825479343227 -4.206146146980481 C 3.628022312673612 -4.203577617537397 3.631789489190135 -4.202207735167753 3.6355566657066576 -4.2023789704639585 L 3.637645736320365 -4.202481711641681 L 3.637645736320365 -4.202481711641681 Z M 3.6524747129717676 -4.199125499836052 C 3.654324054170788 -4.198817276302882 3.6550432424148513 -4.202207735167753 3.6532623953343135 -4.20272144105637 C 3.6514130541352934 -4.202961170471057 3.650762360009712 -4.199536464546946 3.652577454149491 -4.199091252776811 L 3.6524747129717676 -4.199091252776811 Z M 3.6121659242449753 -4.204810511670077 C 3.6118919477710465 -4.202961170471057 3.6152481595766757 -4.202241982226994 3.615761865465292 -4.204022829307532 C 3.6160015948799797 -4.205872170506552 3.6125768889558683 -4.2065228646321335 3.612131677185734 -4.204707770492354 L 3.612131677185734 -4.204810511670077 Z" fill="#18005c" transform="matrix(1,0,0,1,0,0)" fill-rule="nonzero"></path></g><g clip-path="url(#SvgjsClipPath53493659bd5dd-10a7-4623-9293-509286608604)"><path d=" M 0.9798342097951134 -3.774187988772291 C 0.8881205851474061 -3.627816057575764 0.7978795840470667 -3.4736700439315027 0.776303936725164 -3.302297759488961 C 0.7725710072678825 -3.2725713120676727 0.7664407836637227 -3.2363721704498136 0.7382554539082846 -3.2262007938552024 C 0.5553761575607277 -3.160343698934537 0.37246261415392984 -3.0944866040138717 0.18954907074713184 -3.0286295090932063 C 0.16876110578777473 -3.021129403119402 0.15437734090650623 -3.0496914505264927 0.15150058793025253 -3.071609568440807 C 0.1344455524281771 -3.202467581801109 0.15437734090650634 -3.3354831598936014 0.1850284589273046 -3.463841137929302 C 0.2518787185659622 -3.7438108472254212 0.3702365553032574 -4.011417368135498 0.5324306278691804 -4.249194700446563 C 0.5445198397812941 -4.26693467713346 0.5572939928782304 -4.284948630294288 0.5751024636836102 -4.296969348087919 C 0.5726709224774913 -4.283886971457813 0.5814381696432168 -4.271626524249494 0.5896917109203256 -4.2611811711809535 C 0.7188373713185722 -4.098096675074761 0.8488734552570876 -3.9357313672126324 0.9798684568543544 -3.7741537417130497 L 0.9798684568543544 -3.7741537417130497 Z" fill="#64c6c4" transform="matrix(1,0,0,1,0,0)" fill-rule="nonzero"></path></g><g clip-path="url(#SvgjsClipPath53493659bd5dd-10a7-4623-9293-509286608604)"><path d=" M 0.9764779979894844 -3.6731249169517595 C 0.9880192569537403 -3.693741646614911 0.9999029865104072 -3.714837835107438 1.0178826926119928 -3.730180517647458 C 1.0358623987135784 -3.7455232001874776 1.061479199025933 -3.7541534591162384 1.0836027992956936 -3.745831423720648 C 1.1057263995654543 -3.7375093883250567 1.1195622114988648 -3.7084336350293494 1.1069250466388931 -3.6884675994917795 C 1.014903198458016 -3.5431573271317265 0.9603133860276777 -3.3772988192270037 0.9191484208198569 -3.2103101583673244 C 0.9166483854952553 -3.200207275891195 0.9057920677158218 -3.1939743111093124 0.8953809617065227 -3.1934606052206957 C 0.8849698556972236 -3.1929811463913205 0.8749354673395767 -3.1969538052632895 0.8653462907520644 -3.200994958253741 C 0.8511337611670017 -3.2070224406801775 0.8359623139231873 -3.2143855584170176 0.8291813961934464 -3.22825561740967 C 0.824797772610584 -3.237228346930842 0.8246950314328604 -3.2476052058809 0.8249690079067893 -3.2575711001200642 C 0.8291471491342054 -3.4064773137004343 0.9038057382798372 -3.5430545859540032 0.9764779979894844 -3.673090669892519 L 0.9764779979894844 -3.673090669892519 Z" fill="#64c6c4" transform="matrix(1,0,0,1,0,0)" fill-rule="nonzero"></path></g><g clip-path="url(#SvgjsClipPath53493659bd5dd-10a7-4623-9293-509286608604)"><path d=" M 1.951834245176454 -2.706159199278863 C 1.7153240540573105 -2.7279403289562127 1.4812796512035271 -2.7762286824861855 1.2554545425676111 -2.849859859854584 C 1.1858645181896645 -2.8725656601314435 1.1162059996932356 -2.8980797192660743 1.0557256930734256 -2.9393131785923776 C 1.0228485162019547 -2.961745002395308 0.9921289040626741 -2.9898618380322644 0.976409503871002 -3.026471944361017 C 0.9581900683547284 -3.0688355566422767 0.9620942331082155 -3.1170896631130085 0.9683614449493396 -3.162775240140656 C 0.9926768570105318 -3.339764042298741 1.0477461282702454 -3.512506209110928 1.1304527763375396 -3.6708988581010873 C 1.1575079531380206 -3.7227489057921357 1.1884672946919892 -3.774187988772291 1.2336391658310206 -3.8113460480489016 C 1.278811036970052 -3.848504107325512 1.3409694494926767 -3.869429060521834 1.3969976384111416 -3.852682248552928 C 1.281756284064788 -3.9529576380109144 1.2237417657103384 -4.115185957636078 1.2498722719113093 -4.2657017830007815 C 1.2760027781122805 -4.416217608365484 1.3856276147430913 -4.549575657050388 1.528437851778543 -4.603788751829073 C 1.6712480888139947 -4.6580018466077595 1.8420724203086791 -4.630809681570314 1.9606357394014207 -4.534438456865815 C 2.004061010519155 -4.499129738788225 2.0402601521370145 -4.455875702966696 2.0768702584657666 -4.413546337744677 C 2.1885841657102856 -4.284434924405672 2.30721597892151 -4.161316746433862 2.432046509855376 -4.044876745014069 C 2.466122333800286 -4.013095474038313 2.500985840107741 -3.981416944240282 2.5268081227755426 -3.9426492731793386 C 2.583555499938071 -3.8573740956689613 2.5885213235280324 -3.740420388360552 2.5392398052800673 -3.6506245990303468 C 2.489958287032102 -3.560828809700142 2.3885869916784 -3.5022320913385934 2.286188284547465 -3.5043554090115423 C 2.343380873480128 -3.470245338007391 2.383004721022098 -3.4082239137217307 2.389888379929563 -3.341955854090173 C 2.3953336623489 -3.289283876977337 2.3812581210008017 -3.2367146410422247 2.365983932579264 -3.186028993365374 C 2.3376958616461025 -3.0921920510447176 2.3047501906561494 -2.999759238152947 2.2673866490240924 -2.909175766460196 C 2.237146495714187 -2.835852812624968 2.1987555423048972 -2.758180482266118 2.1274189179056533 -2.7235224583141084 C 2.0738222701933076 -2.697494693290861 2.0111843988413067 -2.700713916859526 1.9518684922356953 -2.706159199278863 L 1.9518684922356953 -2.706159199278863 Z M 1.705529395114351 -4.2687497712732405 C 1.6290214647696988 -4.262379818254392 1.5639178051523384 -4.190289758551844 1.565321934581224 -4.113507851733264 C 1.5667260640101097 -4.036725944914683 1.634432500129795 -3.9671016734774946 1.7111459128298938 -3.963539979316419 C 1.7878593255299924 -3.959978285155343 1.861730232313079 -4.023027121218236 1.8702577500641167 -4.099329569207442 C 1.8787852678151544 -4.175632017196647 1.8206680082829816 -4.253441335792462 1.7450847485378398 -4.266934677133461 C 1.7320708660262158 -4.269263477161857 1.7187145129221804 -4.269879924228197 1.7055293951143515 -4.2687840183324814 L 1.7055293951143515 -4.2687840183324814 Z M 2.0539932228927014 -3.635727128260461 C 2.0087528576351876 -3.7180228116168617 2.002862363445716 -3.822099624650612 2.0435821168834023 -3.906724108035408 C 2.084267623261848 -3.9913485914202047 2.1722483184522736 -4.052650827461801 2.26608526077293 -4.056246768682119 C 2.2839964727560336 -4.056931709866941 2.3040310024120862 -4.056383756919082 2.3170791319829513 -4.068678451186643 C 2.2504001076404987 -4.143816499161651 2.18228270680992 -4.217653158885495 2.112795423609697 -4.290188430358178 C 2.1340970944576707 -4.176385452499952 2.10981592945572 -4.054671403957027 2.046458869859656 -3.957786473363911 C 1.9831018102635924 -3.8608672957115546 1.8813880443174793 -3.78980464778624 1.768578231177245 -3.763639894526027 C 1.8619699617277672 -3.7172351292543158 1.9572110334773094 -3.6745632934398857 2.0540274699519427 -3.635761375319702 L 2.0540274699519427 -3.635761375319702 Z M 1.1236033644893164 -3.2545231118476043 C 1.1283637057238314 -3.256783417757518 1.131171964581603 -3.261680747228998 1.1336377528469632 -3.2663383472857896 C 1.1980907183387428 -3.38791540759175 1.2315500952173126 -3.52915027990211 1.3255240257749337 -3.6296996458340254 C 1.3357296494287862 -3.640624457731941 1.3467914495636664 -3.6511040578597225 1.3601820497269426 -3.6576794932340166 C 1.3842234853142055 -3.6694604816129606 1.412511556247367 -3.66730291688077 1.4390872742184726 -3.664083693312105 C 1.7174131246710183 -3.6302818458411243 1.9769030925409503 -3.5103486443787375 2.2307765426953394 -3.391374360575102 C 2.081493611463317 -3.4968553030377376 1.9134775388264047 -3.572370068664398 1.7455642073672155 -3.6446313636631515 C 1.6704261593922076 -3.676960587586765 1.5945689231731368 -3.7089473409179665 1.5147047810228558 -3.7267215646641056 C 1.4767932864429407 -3.73514634123742 1.4368612153678002 -3.7402834001235874 1.399360685498779 -3.730112023528976 C 1.325215802241764 -3.710008999754441 1.2795644722733568 -3.6370285165116245 1.2455571424469292 -3.5681234333185 C 1.1958304124288295 -3.4674028320903796 1.1549736707541787 -3.3623328543386366 1.1235348703708348 -3.254488864788364 L 1.1235348703708348 -3.254488864788364 Z M 2.3697168620365456 -3.8659701075384807 C 2.356497497169475 -3.862476907495887 2.3431411440654397 -3.87055921347679 2.3295108144874757 -3.8718263546687117 C 2.3239627908904152 -3.8723400605573284 2.3183805202341135 -3.8717236134909885 2.312900990755535 -3.8705934605360315 C 2.270160660822622 -3.861620731014859 2.2385163780838315 -3.81620913046114 2.2449548252211615 -3.7729893416988523 C 2.2488247429154073 -3.7469273296163634 2.265057848995696 -3.7232283646215114 2.2872841904431804 -3.7090500820956898 C 2.2953664964240836 -3.7038787761502814 2.3043049788860146 -3.699906117278312 2.3137229201773213 -3.6981595172570154 C 2.3229353791131815 -3.6964471642949595 2.3324903086414532 -3.6969266231243347 2.341737014636554 -3.6985362349086675 C 2.36985385027351 -3.7034678114393884 2.3964295682446153 -3.7199063998751236 2.4106763448889192 -3.74466702370645 C 2.422697062682551 -3.7655919769027717 2.4252655921256348 -3.791688236044502 2.4175600037963836 -3.8145652716175666 C 2.409854415467133 -3.8374080601313905 2.3919774505432705 -3.8566549074248977 2.369751109095786 -3.866004354597722 Z" fill="#64c6c4" transform="matrix(1,0,0,1,0,0)" fill-rule="nonzero"></path></g></g><g><path d=" M 0.218196 0.935028 Q 0.12312000000000001 0.898776 0.06976800000000001 0.84132 L 0.101232 0.7893359999999999 Q 0.151848 0.842688 0.237348 0.876204 Q 0.322848 0.90972 0.41724 0.90972 Q 0.55404 0.90972 0.623808 0.8577359999999999 Q 0.6935760000000001 0.805752 0.6935760000000001 0.722304 Q 0.6935760000000001 0.6580079999999999 0.65664 0.6197039999999999 Q 0.619704 0.5813999999999999 0.564984 0.5608799999999999 Q 0.510264 0.54036 0.41724 0.5184719999999999 Q 0.311904 0.4924799999999999 0.248292 0.46785599999999994 Q 0.18468 0.44323199999999996 0.14022 0.39193199999999995 Q 0.09576000000000001 0.34063199999999993 0.09576000000000001 0.2544479999999999 Q 0.09576000000000001 0.18467999999999996 0.132696 0.12653999999999987 Q 0.169632 0.0683999999999999 0.24555600000000002 0.0341999999999999 Q 0.32148000000000004 -1.1102230246251565e-16 0.435024 -1.1102230246251565e-16 Q 0.514368 -1.1102230246251565e-16 0.5909760000000001 0.023255999999999943 Q 0.6675840000000001 0.04651199999999989 0.7236720000000001 0.08618399999999993 L 0.6976800000000001 0.14227199999999995 Q 0.640224 0.10259999999999991 0.57114 0.08207999999999993 Q 0.5020560000000001 0.06155999999999995 0.435024 0.06155999999999995 Q 0.30232800000000004 0.06155999999999995 0.23392800000000002 0.1149119999999999 Q 0.165528 0.16826399999999997 0.165528 0.25307999999999997 Q 0.165528 0.3173759999999999 0.202464 0.3556799999999999 Q 0.2394 0.3939839999999999 0.29412 0.414504 Q 0.34884000000000004 0.43502399999999997 0.443232 0.4582799999999999 Q 0.5485680000000001 0.4842719999999999 0.611496 0.508896 Q 0.674424 0.53352 0.7188840000000001 0.583452 Q 0.763344 0.633384 0.763344 0.7182 Q 0.763344 0.787968 0.725724 0.845424 Q 0.688104 0.9028799999999999 0.610128 0.9370799999999999 Q 0.5321520000000001 0.9712799999999999 0.41860800000000004 0.9712799999999999 Q 0.313272 0.9712799999999999 0.218196 0.935028 M 1.1696386640625 0.06976799999999994 L 0.8249026640625001 0.06976799999999994 L 0.8249026640625001 0.006839999999999957 L 1.5841426640625 0.006839999999999957 L 1.5841426640625 0.06976799999999994 L 1.2394066640625 0.06976799999999994 L 1.2394066640625 0.96444 L 1.1696386640625 0.96444 L 1.1696386640625 0.06976799999999994 M 2.4213426328125003 0.96444 L 2.1928866328125003 0.644328 Q 2.1422706328125 0.651168 2.0998626328125 0.651168 L 1.8262626328125002 0.651168 L 1.8262626328125002 0.96444 L 1.7564946328125002 0.96444 L 1.7564946328125002 0.006839999999999957 L 2.0998626328125 0.006839999999999957 Q 2.2804386328125004 0.006839999999999957 2.3830386328125 0.09233999999999987 Q 2.4856386328125004 0.1778399999999999 2.4856386328125004 0.329688 Q 2.4856386328125004 0.44323199999999996 2.4274986328125 0.520524 Q 2.3693586328125003 0.5978159999999999 2.2612866328125003 0.62928 L 2.5006866328125 0.96444 L 2.4213426328125003 0.96444 M 2.0998626328125 0.5896079999999999 Q 2.2530786328125005 0.5896079999999999 2.3337906328125 0.521892 Q 2.4145026328125003 0.4541759999999999 2.4145026328125003 0.329688 Q 2.4145026328125003 0.20519999999999994 2.3337906328125 0.13748399999999994 Q 2.2530786328125005 0.06976799999999994 2.0998626328125 0.06976799999999994 L 1.8262626328125002 0.06976799999999994 L 1.8262626328125002 0.5896079999999999 L 2.0998626328125 0.5896079999999999 M 3.4021585546875004 0.901512 L 3.4021585546875004 0.96444 L 2.7414145546875 0.96444 L 2.7414145546875 0.006839999999999957 L 3.3816385546875 0.006839999999999957 L 3.3816385546875 0.06976799999999994 L 2.8111825546875004 0.06976799999999994 L 2.8111825546875004 0.44733599999999996 L 3.3214465546875003 0.44733599999999996 L 3.3214465546875003 0.508896 L 2.8111825546875004 0.508896 L 2.8111825546875004 0.901512 L 3.4021585546875004 0.901512 M 4.24895923828125 0.694944 L 3.69355123828125 0.694944 L 3.5717992382812502 0.96444 L 3.4965592382812503 0.96444 L 3.9370552382812503 0.006839999999999957 L 4.0068232382812505 0.006839999999999957 L 4.44731923828125 0.96444 L 4.37207923828125 0.96444 L 4.24895923828125 0.694944 M 4.22296723828125 0.63612 L 3.9712552382812505 0.08344799999999997 L 3.7209112382812504 0.63612 L 4.22296723828125 0.63612 M 5.5266946171875 0.96444 L 5.525326617187501 0.14500799999999991 L 5.124502617187501 0.837216 L 5.0903026171875005 0.837216 L 4.6894786171875005 0.14774399999999988 L 4.6894786171875005 0.96444 L 4.621078617187501 0.96444 L 4.621078617187501 0.006839999999999957 L 4.6799026171875004 0.006839999999999957 L 5.1080866171875 0.7469279999999999 L 5.536270617187501 0.006839999999999957 L 5.5937266171875 0.006839999999999957 L 5.595094617187501 0.96444 L 5.5266946171875 0.96444" fill="#212245" fill-rule="nonzero"></path></g><g></g></g><defs><clipPath id="SvgjsClipPath53498"><path d=" M 0.1452328907885594 -4.6313360153697465 h 5.4715161520166316 v 4.3813360153697465 h -5.4715161520166316 Z"></path></clipPath><clipPath id="SvgjsClipPath53493659bd5dd-10a7-4623-9293-509286608604"><path d=" M 0.1452328907885594 -4.6313360153697465 L 5.616749042805191 -4.6313360153697465 L 5.616749042805191 -0.25 L 0.1452328907885594 -0.25 Z"></path></clipPath></defs></svg>